<svg width="125" height="23" viewBox="0 0 125 23" fill="none" xmlns="http://www.w3.org/2000/svg">
<path d="M20.88 12.6397V0H15.6598L0 22.6138H6.26407L15.4859 9.2963V20.4397L20.88 12.6397Z" fill="white"/>
<path d="M36.3659 22.6138V0H31.1466L15.486 22.6138H21.75L30.9719 9.2963V22.6138H36.3659Z" fill="white"/>
<path d="M43.6748 5.2178H38.4546V22.6136H43.6748V5.2178Z" fill="white"/>
<path d="M71.8626 11.6547C71.8626 7.909 68.8245 4.8701 65.0762 4.8701C63.0563 4.8701 61.2409 5.754 59.9975 7.1567C58.8485 5.7606 57.1076 4.8701 55.1581 4.8701C53.5538 4.8701 52.0911 5.4734 50.9818 6.4657V5.2177H45.7616V22.6136H50.9818V12.5236C50.9818 11.0828 52.1507 9.9143 53.5911 9.9143C55.0323 9.9143 56.2012 11.0828 56.2012 12.5236V22.6127H61.4205V12.5236C61.4205 11.0828 62.5894 9.9143 64.0306 9.9143C65.4719 9.9143 66.6407 11.0828 66.6407 12.5236V22.6127H71.8609L71.8626 11.6547Z" fill="white"/>
<path d="M87.5221 22.6134H92.7431V5.2176H87.5221V6.6973C86.0271 5.5511 84.1579 4.8691 82.1281 4.8691C77.2274 4.8691 73.2539 8.8424 73.2539 13.7409C73.2539 18.6418 77.2274 22.6151 82.1281 22.6151H86.1297V17.5685H82.3019C80.0917 17.5685 78.3003 15.7776 78.3003 13.5679C78.3003 11.3591 80.0925 9.5682 82.3019 9.5682H82.8243C85.4186 9.5682 87.5213 11.6702 87.5213 14.2639L87.5221 22.6134Z" fill="white"/>
<path d="M112.404 5.2178H106.14L100.049 12.6586V5.2178H94.8304V22.6136H100.049V13.5681V13.1419L106.14 22.6136H112.404L106.14 12.8729L112.404 5.2178Z" fill="white"/>
<path d="M119.191 5.2178H113.969V22.6136H119.191V5.2178Z" fill="white"/>
<path d="M122.583 3.2178C121.479 3.2178 120.583 4.1132 120.583 5.218C120.583 6.3229 121.479 7.2183 122.583 7.2183C123.689 7.2183 124.585 6.3229 124.585 5.218C124.585 4.1132 123.689 3.2178 122.583 3.2178ZM122.583 6.9585C121.623 6.9585 120.841 6.1797 120.841 5.218C120.841 4.258 121.62 3.4776 122.583 3.4776C123.546 3.4776 124.325 4.2572 124.325 5.218C124.325 6.1789 123.543 6.9585 122.583 6.9585Z" fill="white"/>
<path d="M122.844 5.4799C123.23 5.4799 123.541 5.1687 123.541 4.7839C123.541 4.3991 123.23 4.0879 122.844 4.0879H121.888V6.3489H122.148V5.2184V4.3494H122.844C123.085 4.3494 123.279 4.5431 123.279 4.7831C123.279 5.0231 123.085 5.2175 122.844 5.2175L122.148 5.2184L123.193 6.348H123.541L122.739 5.4782H122.844V5.4799Z" fill="white"/>
</svg>
